# xmcd
#
# Track frame offsets:
#	150
#	76477
#	116336
#	149775
#	180353
#	236215
#	264229
#
# Disc length: 3737 seconds
#
# Revision: 1
# Processed by: cddbd v1.5.2PL0 Copyright (c) Steve Scherf et al.
# Submitted via: audiograbber 1.83.01
#
DISCID=5b0e9707
DTITLE=Grateful Dead - 84-12-31 San Francisco Civic Auditorium, San Francisco C
DTITLE=A
DYEAR=1900
DGENRE=
TTITLE0=Shakedown Street
TTITLE1=New Minglewood Blues
TTITLE2=Peggy-O
TTITLE3=Jack Straw
TTITLE4=Bird Song
TTITLE5=Hell In A Bucket
TTITLE6=Don't Ease Me In
EXTD=
EXTT0=
EXTT1=
EXTT2=
EXTT3=
EXTT4=
EXTT5=
EXTT6=
PLAYORDER=
